<?xml version="1.0" encoding="UTF-8" standalone="no"?>
<!-- Created with Inkscape (http://www.inkscape.org/) -->

<svg
   version="1.1"
   id="svg91"
   width="866.66669"
   height="666.66669"
   viewBox="0 0 866.66669 666.66669"
   sodipodi:docname="welcome.svg"
   inkscape:version="1.2.2 (b0a8486541, 2022-12-01)"
   xmlns:inkscape="http://www.inkscape.org/namespaces/inkscape"
   xmlns:sodipodi="http://sodipodi.sourceforge.net/DTD/sodipodi-0.dtd"
   xmlns="http://www.w3.org/2000/svg"
   xmlns:svg="http://www.w3.org/2000/svg">
  <defs
     id="defs95">
    <clipPath
       clipPathUnits="userSpaceOnUse"
       id="clipPath109">
      <path
         d="M 0,500 H 650 V 0 H 0 Z"
         id="path107" />
    </clipPath>
  </defs>
  <sodipodi:namedview
     id="namedview93"
     pagecolor="#ffffff"
     bordercolor="#000000"
     borderopacity="0.25"
     inkscape:showpageshadow="2"
     inkscape:pageopacity="0.0"
     inkscape:pagecheckerboard="0"
     inkscape:deskcolor="#d1d1d1"
     showgrid="false"
     inkscape:zoom="1.203"
     inkscape:cx="433.08397"
     inkscape:cy="322.52702"
     inkscape:window-width="1920"
     inkscape:window-height="1011"
     inkscape:window-x="0"
     inkscape:window-y="0"
     inkscape:window-maximized="1"
     inkscape:current-layer="g99">
    <inkscape:page
       x="0"
       y="0"
       id="page97"
       width="866.66669"
       height="666.66669" />
  </sodipodi:namedview>
  <g
     id="g99"
     inkscape:groupmode="layer"
     inkscape:label="Page 1"
     transform="matrix(1.3333333,0,0,-1.3333333,0,666.66667)">
    <g
       id="g103">
      <g
         id="g105"
         clip-path="url(#clipPath109)">
        <g
           id="g115"
           transform="translate(574.287)">
          <path
             d="M 0,0 H -53.939 L -73.777,94.586 -87.533,0 h -56.508 l 7.775,70.416 4.894,44.301 2.951,26.712 76.666,19.757 34.61,-1.908 z"
             style="fill:#2db3ac;fill-opacity:1;fill-rule:nonzero;stroke:none"
             id="path117" />
        </g>
        <g
           id="g119"
           transform="translate(497.1589,101.623)">
          <path
             d="m 0,0 c -9.15,5.369 -18.299,10.738 -27.449,16.106 -2.582,1.516 -5.164,3.031 -7.746,4.546 -0.496,0.291 -0.859,-0.524 -0.369,-0.812 C -26.415,14.471 -17.265,9.102 -8.115,3.734 -5.533,2.218 -2.951,0.703 -0.369,-0.812 0.126,-1.103 0.49,-0.288 0,0"
             style="fill:#009789;fill-opacity:1;fill-rule:nonzero;stroke:none"
             id="path121" />
        </g>
        <g
           id="g123"
           transform="translate(495.5042,99.589)">
          <path
             d="m 0,0 c -6.55,1.669 -13.1,3.337 -19.65,5.006 -0.556,0.141 -0.692,-0.74 -0.14,-0.881 6.55,-1.669 13.1,-3.337 19.65,-5.006 C 0.416,-1.022 0.552,-0.141 0,0"
             style="fill:#009789;fill-opacity:1;fill-rule:nonzero;stroke:none"
             id="path125" />
        </g>
        <g
           id="g127"
           transform="translate(560.9487,65.3302)">
          <path
             d="m 0,0 c -2.222,19.352 -4.443,38.704 -6.665,58.055 -1.258,10.96 -2.517,21.919 -3.775,32.879 -0.065,0.569 -0.952,0.472 -0.886,-0.1 l 6.699,-58.352 c 2.222,-19.351 4.444,-38.703 6.665,-58.055 1.258,-10.959 2.517,-21.919 3.775,-32.878 0.065,-0.569 0.952,-0.472 0.886,0.099 z"
             style="fill:#009789;fill-opacity:1;fill-rule:nonzero;stroke:none"
             id="path129" />
        </g>
        <g
           id="g131"
           transform="translate(630.3221,347.399)">
          <path
             d="m 0,0 c -0.836,-7.694 -2.93,-15.201 -5.008,-22.659 -1.917,-6.857 -3.826,-13.715 -5.734,-20.572 l -21.578,0.532 c -2.263,1.394 -4.155,3.446 -5.599,5.701 -2.052,3.192 -3.344,6.798 -4.653,10.353 -1.309,3.556 -2.686,7.145 -4.89,10.228 -0.836,1.173 -1.807,2.313 -2.187,3.699 -0.389,1.393 0.059,3.15 1.385,3.707 1.435,0.6 2.998,-0.439 4.172,-1.469 4.231,-3.708 7.896,-8.083 10.809,-12.905 l 0.059,0.034 c 0.406,12.364 0.811,24.728 1.217,37.091 0.025,0.693 0.05,1.411 0.329,2.053 0.27,0.65 0.853,1.207 1.546,1.249 1.292,0.076 1.992,-1.461 2.305,-2.719 1.976,-7.964 3.032,-16.164 3.159,-24.373 0.591,8.623 1.461,17.237 2.592,25.809 0.245,1.799 0.541,3.716 1.765,5.058 0.465,0.516 1.115,0.938 1.808,0.87 1.292,-0.126 1.79,-1.731 1.959,-3.023 1.224,-9.484 1.376,-19.103 0.447,-28.621 l 0.043,-0.008 c 1.554,8.116 3.116,16.24 4.67,24.356 0.169,0.861 0.397,1.815 1.131,2.28 1.191,0.751 2.745,-0.33 3.421,-1.563 1.174,-2.178 1.03,-4.805 0.768,-7.271 -0.743,-7.026 -2.229,-13.96 -3.707,-20.876 1.799,4.957 3.674,9.897 5.608,14.796 0.388,0.996 0.971,2.136 2.035,2.263 0.87,0.11 1.672,-0.591 1.985,-1.419 C 0.16,1.782 0.093,0.878 0,0"
             style="fill:#ff893f;fill-opacity:1;fill-rule:nonzero;stroke:none"
             id="path133" />
        </g>
        <g
           id="g135"
           transform="translate(442.9155,114.7174)">
          <path
             d="m 0,0 -4.895,-44.302 c -4.36,1.302 -8.737,7.373 -10.065,10.886 -2.764,6.491 -2.042,13.668 -2.078,20.577 0.339,4.806 -1.417,10.566 0.999,14.872 3.664,2.657 8.746,0.133 12.678,-0.785 C -2.167,0.999 -1.017,0.579 0,0"
             style="fill:#ff893f;fill-opacity:1;fill-rule:nonzero;stroke:none"
             id="path137" />
        </g>
        <g
           id="g139"
           transform="translate(451.314,184.8032)">
          <path
             d="M 0,0 0.829,47.422 4.957,24.126 Z m 167.632,120.521 -22.78,0.562 -1.266,0.036 -5.117,-20.408 c 0,0 -12.393,28.004 -22.637,40.397 C 105.588,153.5 71.218,153.17 71.218,153.17 l -46.219,-9.45 c 0,0 -31.811,-18.732 -41.11,-25.213 -9.29,-6.473 -14.122,-7.837 -16.11,-43.651 -1.979,-35.814 1.489,-146.484 1.489,-146.484 0,0 7.505,-6.651 22.002,-1.444 l 2.907,26.321 c 0,0 43.42,-19.439 73.198,17.873 0,0 29.163,0.375 38.453,3.353 l -1.979,52.789 1.979,38.667 c 0,0 19.588,-41.27 42.885,-40.397 23.296,0.865 21.067,54.404 21.558,94.925 z"
             style="fill:#cb3434;fill-opacity:1;fill-rule:nonzero;stroke:none"
             id="path141" />
        </g>
        <g
           id="g143"
           transform="translate(522.532,337.9737)">
          <path
             d="m 0,0 c 0,0 -0.553,-4.823 -1.765,-10.592 h -0.009 c -1.4,-6.615 -3.673,-14.479 -6.981,-17.742 l -3.968,1.73 -7.355,-14.782 -14.292,9.914 -3.718,-3.228 c 0,0 -10.618,5.457 -15.45,20.818 0,0 1.003,5.971 8.782,6.231 l 0.121,-4.278 19.52,-8.969 16.32,16.942 -1.481,4.584 h 0.009 C -10.044,0.735 -5.376,2.372 0,0"
             style="fill:#f8eadc;fill-opacity:1;fill-rule:nonzero;stroke:none"
             id="path145" />
        </g>
        <g
           id="g147"
           transform="translate(621.3909,336.3391)">
          <path
             d="m 0,0 c -5.486,1.772 -11.191,2.705 -16.956,2.776 -0.571,0.007 -0.468,-0.879 0.1,-0.886 C -11.265,1.821 -5.689,0.906 -0.369,-0.812 0.172,-0.987 0.545,-0.176 0,0"
             style="fill:#e15225;fill-opacity:1;fill-rule:nonzero;stroke:none"
             id="path149" />
        </g>
        <g
           id="g151"
           transform="translate(615.3585,330.0311)">
          <path
             d="m 0,0 c -3.719,-2.06 -7.111,-4.651 -10.095,-7.678 -0.404,-0.409 0.29,-0.97 0.69,-0.564 2.928,2.97 6.281,5.499 9.929,7.521 C 1.025,-0.443 0.496,0.275 0,0"
             style="fill:#e15225;fill-opacity:1;fill-rule:nonzero;stroke:none"
             id="path153" />
        </g>
        <g
           id="g155"
           transform="translate(449.8632,271.138)">
          <path
             d="m 0,0 -0.638,11.456 c -0.032,0.572 -0.918,0.473 -0.886,-0.1 0.753,-13.532 1.507,-27.064 2.261,-40.596 0.212,-3.819 0.425,-7.637 0.638,-11.456 0.032,-0.572 0.918,-0.473 0.886,0.1 C 1.507,-27.064 0.754,-13.532 0,0"
             style="fill:#a61e1e;fill-opacity:1;fill-rule:nonzero;stroke:none"
             id="path157" />
        </g>
        <g
           id="g159"
           transform="translate(557.4086,252.2835)">
          <path
             d="m 0,0 c -2.272,6.927 -4.776,13.777 -7.514,20.533 -0.786,1.94 -1.591,3.872 -2.415,5.796 -0.225,0.526 -1.057,0.206 -0.831,-0.324 2.868,-6.702 5.51,-13.5 7.916,-20.382 0.69,-1.975 1.361,-3.958 2.013,-5.947 C -0.652,-0.869 0.179,-0.545 0,0"
             style="fill:#a61e1e;fill-opacity:1;fill-rule:nonzero;stroke:none"
             id="path161" />
        </g>
        <g
           id="g163"
           transform="translate(553.9702,252.6161)">
          <path
             d="m 0,0 c -4.111,5.083 -8.223,10.166 -12.334,15.249 -0.36,0.445 -1.083,-0.077 -0.721,-0.524 C -8.944,9.642 -4.833,4.559 -0.721,-0.524 -0.361,-0.969 0.362,-0.447 0,0"
             style="fill:#a61e1e;fill-opacity:1;fill-rule:nonzero;stroke:none"
             id="path165" />
        </g>
        <g
           id="g167"
           transform="translate(588.8406,284.4353)">
          <path
             d="m 0,0 c -2.192,-8.069 -4.384,-16.137 -6.577,-24.206 -0.621,-2.284 -1.241,-4.569 -1.862,-6.854 -0.151,-0.553 0.731,-0.688 0.88,-0.14 2.193,8.069 4.385,16.137 6.577,24.206 0.621,2.285 1.242,4.57 1.863,6.855 C 1.031,0.413 0.149,0.549 0,0"
             style="fill:#a61e1e;fill-opacity:1;fill-rule:nonzero;stroke:none"
             id="path169" />
        </g>
        <g
           id="g171"
           transform="translate(538.416,175.8809)">
          <path
             d="m 0,0 c -6.074,-6.371 -12.149,-12.743 -18.223,-19.114 -0.397,-0.416 0.296,-0.978 0.69,-0.565 6.074,6.372 12.149,12.743 18.223,19.114 C 1.087,-0.149 0.394,0.413 0,0"
             style="fill:#a61e1e;fill-opacity:1;fill-rule:nonzero;stroke:none"
             id="path173" />
        </g>
        <g
           id="g175"
           transform="translate(527.4814,171.7986)">
          <path
             d="m 0,0 c -6.779,-7.848 -13.689,-15.703 -21.933,-22.062 -7.822,-6.035 -16.904,-10.722 -26.805,-11.963 -5.753,-0.721 -11.665,-0.276 -17.151,1.656 -0.538,0.19 -0.91,-0.621 -0.368,-0.812 9.802,-3.453 20.639,-2.303 30.109,1.653 9.379,3.919 17.441,10.357 24.576,17.495 4.294,4.296 8.293,8.873 12.262,13.468 C 1.066,-0.129 0.375,0.434 0,0"
             style="fill:#a61e1e;fill-opacity:1;fill-rule:nonzero;stroke:none"
             id="path177" />
        </g>
        <g
           id="g179"
           transform="translate(450.4244,183.6309)">
          <path
             d="m 0,0 c -1.823,-6.098 -3.276,-12.305 -4.335,-18.582 -0.524,-3.102 -0.953,-6.22 -1.286,-9.349 -0.314,-2.942 -0.612,-5.914 -0.649,-8.874 -0.037,-2.905 0.355,-5.922 2.135,-8.314 0.343,-0.46 1.064,0.063 0.721,0.524 -1.576,2.118 -1.957,4.768 -1.972,7.344 -0.018,2.917 0.3,5.856 0.6,8.754 0.634,6.117 1.635,12.196 2.995,18.193 0.774,3.418 1.668,6.807 2.672,10.165 C 1.044,0.408 0.162,0.542 0,0"
             style="fill:#a61e1e;fill-opacity:1;fill-rule:nonzero;stroke:none"
             id="path181" />
        </g>
        <g
           id="g183"
           transform="translate(520.9453,255.3981)">
          <path
             d="m 0,0 c -9.64,-6.927 -18.466,-14.984 -26.235,-23.961 -2.197,-2.539 -4.307,-5.152 -6.331,-7.831 -0.346,-0.457 0.343,-1.023 0.69,-0.565 7.131,9.439 15.361,18.037 24.495,25.556 2.567,2.113 5.205,4.14 7.905,6.08 C 0.991,-0.386 0.467,0.335 0,0"
             style="fill:#a61e1e;fill-opacity:1;fill-rule:nonzero;stroke:none"
             id="path185" />
        </g>
        <g
           id="g187"
           transform="translate(516.7686,236.5086)">
          <path
             d="m 0,0 c -5.235,-3.591 -10.47,-7.183 -15.705,-10.774 -0.474,-0.325 0.051,-1.046 0.524,-0.721 5.235,3.591 10.47,7.182 15.705,10.774 C 0.998,-0.396 0.473,0.325 0,0"
             style="fill:#a61e1e;fill-opacity:1;fill-rule:nonzero;stroke:none"
             id="path189" />
        </g>
        <g
           id="g191"
           transform="translate(496.7959,315.4832)">
          <path
             d="m 0,0 c -2.997,-2.628 -5.817,-5.452 -8.434,-8.459 -0.378,-0.434 0.314,-0.998 0.69,-0.565 2.567,2.949 5.327,5.725 8.268,8.303 C 0.953,-0.346 0.432,0.379 0,0"
             style="fill:#ebcbb0;fill-opacity:1;fill-rule:nonzero;stroke:none"
             id="path193" />
        </g>
        <g
           id="g195"
           transform="translate(509.8174,312.0347)">
          <path
             d="M 0,0 C -3.217,1.738 -6.56,3.228 -10.002,4.46 -10.539,4.653 -10.911,3.842 -10.371,3.648 -6.928,2.416 -3.585,0.926 -0.368,-0.812 0.137,-1.085 0.502,-0.271 0,0"
             style="fill:#ebcbb0;fill-opacity:1;fill-rule:nonzero;stroke:none"
             id="path197" />
        </g>
        <g
           id="g199"
           transform="translate(509.0467,383.0548)">
          <path
             d="m 0,0 c -2.173,-4.425 -5.941,-7.843 -10.559,-9.587 -4.101,-1.551 -8.693,-1.735 -12.838,-0.289 -3.137,-1.157 -6.458,-1.796 -9.797,-1.866 -2.9,-0.053 -5.818,0.28 -8.605,1.086 -2.568,0.745 -5.056,1.954 -6.87,3.97 -3.698,4.083 -3.619,9.832 -2.699,14.976 -2.515,3.075 -4.425,6.94 -3.584,10.997 0.35,1.683 1.165,3.207 2.418,4.382 1.245,1.165 2.796,1.927 4.347,2.602 1.691,0.736 3.4,1.402 4.968,2.375 1.744,1.095 3.339,2.401 5.065,3.514 3.023,1.928 6.713,3.225 10.13,1.533 2.629,-1.297 4.574,-3.952 4.829,-6.887 2.751,1.349 5.757,2.304 8.841,2.357 2.927,0.052 5.731,-0.762 8.176,-2.375 C 2.313,21.154 4.329,8.807 0,0"
             style="fill:#34314c;fill-opacity:1;fill-rule:nonzero;stroke:none"
             id="path201" />
        </g>
        <g
           id="g203"
           transform="translate(510.4283,369.2445)">
          <path
             d="m 0,0 0.753,-4.197 c 0.491,-2.761 0.43,-5.504 -0.096,-8.097 -0.517,-2.55 -1.49,-4.978 -2.83,-7.16 v -0.008 c -3.164,-5.118 -8.378,-8.912 -14.713,-10.043 -6.336,-1.139 -12.549,0.631 -17.281,4.338 -2.182,1.709 -4.039,3.821 -5.459,6.265 -1.227,2.13 -2.112,4.487 -2.568,7.037 l -0.753,4.197 c -11.97,-2.138 -15.256,12.821 -10.77,17.062 0.114,0.114 0.246,0.219 0.36,0.315 3.128,2.585 6.046,0.395 7.089,-0.587 -1.753,8.456 1.157,13.18 1.157,13.18 3.995,-0.552 7.693,-0.552 11.032,-0.219 5.31,0.525 9.727,1.91 13.022,3.303 4.267,1.797 8.203,4.464 8.203,4.464 0,0 7.491,-6.211 9.927,-13.455 0.009,-0.008 0.009,-0.017 0.009,-0.026 0,0 1.314,3.628 4.522,3.856 0.753,0.061 1.612,-0.07 2.602,-0.491 C 9.885,17.315 11.988,2.129 0,0"
             style="fill:#ff893f;fill-opacity:1;fill-rule:nonzero;stroke:none"
             id="path205" />
        </g>
        <g
           id="g207"
           transform="translate(514.2138,334.4119)">
          <path
             d="M 0,0 -16.79,-17.429 -37.47,-9 l -0.123,5.057 -0.359,13.617 c 4.732,-3.715 10.945,-5.485 17.28,-4.346 6.327,1.13 11.541,4.925 14.713,10.042 L -1.446,3.742 h -0.009 z"
             style="fill:#ff893f;fill-opacity:1;fill-rule:nonzero;stroke:none"
             id="path209" />
        </g>
        <g
           id="g211"
           transform="translate(512.7679,338.1537)">
          <path
             d="M 0,0 1.446,-3.742 -0.009,0 Z"
             style="fill:#ff893f;fill-opacity:1;fill-rule:nonzero;stroke:none"
             id="path213" />
        </g>
        <g
           id="g215"
           transform="translate(508.253,349.7786)">
          <path
             d="m 0,0 c 0,0 -4.918,-23.027 -31.631,-19.31 l -0.357,13.613 c 4.727,-3.713 10.942,-5.479 17.281,-4.341 C -8.377,-8.909 -3.166,-5.112 0,0"
             style="fill:#e15225;fill-opacity:1;fill-rule:nonzero;stroke:none"
             id="path217" />
        </g>
        <g
           id="g219"
           transform="translate(492.8342,363.818)">
          <path
             d="m 0,0 c -2.533,-0.855 -5.083,-1.659 -7.645,-2.421 -0.097,5.914 -0.277,11.826 -0.549,17.734 -0.029,0.623 -0.99,0.504 -0.961,-0.115 0.28,-6.105 0.468,-12.213 0.562,-18.323 0.005,-0.345 0.395,-0.47 0.664,-0.391 2.782,0.818 5.548,1.692 8.296,2.619 C 0.957,-0.697 0.59,0.199 0,0"
             style="fill:#e15225;fill-opacity:1;fill-rule:nonzero;stroke:none"
             id="path221" />
        </g>
        <g
           id="g223"
           transform="translate(499.1873,363.2853)">
          <path
             d="m 0,0 c 0.413,-3.801 -1.412,-7.658 -4.588,-9.776 -0.519,-0.346 0.067,-1.117 0.585,-0.772 3.454,2.303 5.413,6.542 4.965,10.663 C 0.894,0.735 -0.067,0.62 0,0"
             style="fill:#34314c;fill-opacity:1;fill-rule:nonzero;stroke:none"
             id="path225" />
        </g>
        <g
           id="g227"
           transform="translate(478.7365,363.4195)">
          <path
             d="m 0,0 c 0.573,-2.02 -0.6,-4.123 -2.62,-4.697 -2.021,-0.573 -4.124,0.6 -4.697,2.621 -0.573,2.02 0.6,4.123 2.62,4.696 C -2.676,3.194 -0.573,2.021 0,0"
             style="fill:#e15225;fill-opacity:1;fill-rule:nonzero;stroke:none"
             id="path229" />
        </g>
        <g
           id="g231"
           transform="translate(508.1443,371.7643)">
          <path
             d="m 0,0 c 0.573,-2.021 -0.6,-4.123 -2.62,-4.697 -2.021,-0.573 -4.124,0.6 -4.697,2.621 -0.573,2.02 0.6,4.123 2.62,4.696 C -2.676,3.194 -0.573,2.021 0,0"
             style="fill:#e15225;fill-opacity:1;fill-rule:nonzero;stroke:none"
             id="path233" />
        </g>
        <g
           id="g235"
           transform="translate(478.0297,373.7837)">
          <path
             d="m 0,0 c 0.507,-1.788 -0.255,-3.571 -1.704,-3.982 -1.448,-0.411 -3.033,0.706 -3.541,2.494 -0.507,1.788 0.256,3.57 1.704,3.981 C -2.093,2.904 -0.507,1.788 0,0"
             style="fill:#34314c;fill-opacity:1;fill-rule:nonzero;stroke:none"
             id="path237" />
        </g>
        <g
           id="g239"
           transform="translate(498.1097,378.7144)">
          <path
             d="m 0,0 c 0.507,-1.788 -0.255,-3.571 -1.704,-3.982 -1.448,-0.411 -3.033,0.706 -3.541,2.494 -0.507,1.788 0.256,3.57 1.704,3.981 C -2.093,2.904 -0.507,1.788 0,0"
             style="fill:#34314c;fill-opacity:1;fill-rule:nonzero;stroke:none"
             id="path241" />
        </g>
        <g
           id="g243"
           transform="translate(476.0849,381.3209)">
          <path
             d="M 0,0 C -0.314,0.379 -0.752,0.693 -1.255,0.746 -1.429,0.748 -1.602,0.751 -1.775,0.753 -2.122,0.711 -2.435,0.584 -2.714,0.374 L -6.55,-1.895 c -0.39,-0.231 -0.681,-0.828 -0.746,-1.256 -0.071,-0.475 0.059,-1.082 0.372,-1.458 0.314,-0.379 0.752,-0.694 1.255,-0.746 0.173,-0.003 0.347,-0.005 0.52,-0.008 0.347,0.043 0.66,0.169 0.939,0.379 l 3.836,2.27 c 0.39,0.231 0.681,0.828 0.746,1.255 C 0.443,-0.983 0.312,-0.377 0,0"
             style="fill:#34314c;fill-opacity:1;fill-rule:nonzero;stroke:none"
             id="path245" />
        </g>
        <g
           id="g247"
           transform="translate(489.8479,385.2263)">
          <path
             d="M 0,0 C 0.068,0.487 0.276,0.984 0.676,1.294 0.823,1.387 0.969,1.48 1.115,1.573 1.432,1.719 1.765,1.776 2.113,1.744 L 6.569,1.827 C 7.023,1.836 7.584,1.481 7.863,1.151 8.174,0.784 8.381,0.199 8.313,-0.286 8.245,-0.773 8.038,-1.27 7.637,-1.58 7.491,-1.673 7.345,-1.766 7.198,-1.859 6.881,-2.005 6.548,-2.062 6.2,-2.03 L 1.744,-2.113 C 1.291,-2.121 0.729,-1.767 0.45,-1.436 0.139,-1.069 -0.068,-0.485 0,0"
             style="fill:#34314c;fill-opacity:1;fill-rule:nonzero;stroke:none"
             id="path249" />
        </g>
        <g
           id="g251"
           transform="translate(134.2742,116.2638)">
          <path
             d="m 0,0 -13.616,-116.264 h 63.892 l 13.102,85.561 14.829,-85.561 h 65.988 L 124.992,0 Z"
             style="fill:#cb3434;fill-opacity:1;fill-rule:nonzero;stroke:none"
             id="path253" />
        </g>
        <g
           id="g255"
           transform="translate(193.5544,85.8106)">
          <path
             d="M 0,0 C -5.559,1.597 -11.117,3.194 -16.676,4.791 -17.205,4.943 -17.334,4.095 -16.81,3.945 -11.252,2.347 -5.693,0.75 -0.134,-0.847 0.395,-0.999 0.524,-0.151 0,0"
             style="fill:#a61e1e;fill-opacity:1;fill-rule:nonzero;stroke:none"
             id="path257" />
        </g>
        <g
           id="g259"
           transform="translate(190.5602,82.6609)">
          <path
             d="m 0,0 -16.204,-0.997 c -0.55,-0.034 -0.455,-0.886 0.096,-0.852 L 0.096,-0.852 C 0.646,-0.818 0.551,0.034 0,0"
             style="fill:#a61e1e;fill-opacity:1;fill-rule:nonzero;stroke:none"
             id="path261" />
        </g>
        <g
           id="g263"
           transform="translate(163.1254,323.2266)">
          <path
             d="m 0,0 c 0,0 -8.989,-0.063 -13.722,-7.208 0,0 -24.44,-5.439 -29.483,-14.206 -5.043,-8.767 -35.69,-58.656 -35.69,-58.656 l 26.399,-51.773 c 0,0 12.705,3.088 11.308,16.471 l 8.38,10.475 5.586,-34.604 -4.965,-78.673 c 0,0 17.767,-15.983 29.017,-17.38 11.25,-1.396 38.793,17.535 38.793,17.535 0,0 26.923,-17.612 36.932,-18.621 10.008,-1.008 26.534,19.552 26.534,19.552 l -8.767,93.337 1.629,53.302 28.164,-13.965 c 0,0 9.696,-15.871 27.018,-5.492 l -6.535,42.5 c 0,0 -43.836,31.469 -54.078,38.406 -10.241,6.936 -44.224,6.284 -44.224,6.284 0,0 -5.794,5.587 -11.82,4.656 z"
             style="fill:#ffb444;fill-opacity:1;fill-rule:nonzero;stroke:none"
             id="path265" />
        </g>
        <g
           id="g267"
           transform="translate(178.0889,281.8787)">
          <path
             d="m 0,0 c -3.09,4.515 -6.219,9.08 -10.244,12.827 -3.548,3.304 -7.934,6.098 -12.78,6.931 -2.413,0.416 -4.96,0.25 -7.127,-0.922 -0.505,4.065 0.02,8.204 1.57,12.004 0.208,0.51 -0.573,0.866 -0.781,0.354 -1.687,-4.138 -2.236,-8.677 -1.566,-13.096 0.05,-0.328 0.404,-0.479 0.679,-0.299 4.049,2.648 9.519,0.93 13.402,-1.185 4.384,-2.388 7.941,-6.019 10.993,-9.916 1.822,-2.326 3.492,-4.765 5.16,-7.202 C -0.381,-0.96 0.312,-0.455 0,0"
             style="fill:#ff8d00;fill-opacity:1;fill-rule:nonzero;stroke:none"
             id="path269" />
        </g>
        <g
           id="g271"
           transform="translate(208.8883,316.4205)">
          <path
             d="m 0,0 c -0.215,0.507 -1.015,0.198 -0.799,-0.312 1.613,-3.801 2.764,-7.773 3.448,-11.844 -9.31,-1.039 -16.445,-8.004 -21.62,-15.317 -1.62,-2.289 -3.12,-4.659 -4.614,-7.031 -0.29,-0.462 0.37,-1.01 0.664,-0.544 4.911,7.799 10.272,16.109 18.933,20.127 2.273,1.055 4.691,1.749 7.19,1.973 0.223,0.02 0.414,0.249 0.378,0.474 C 2.896,-8.187 1.696,-3.996 0,0"
             style="fill:#ff8d00;fill-opacity:1;fill-rule:nonzero;stroke:none"
             id="path273" />
        </g>
        <g
           id="g275"
           transform="translate(120.8085,209.7061)">
          <path
             d="m 0,0 c -3.722,8.546 -9.021,16.369 -15.565,23.007 -1.871,1.898 -3.844,3.693 -5.906,5.382 -0.428,0.35 -0.971,-0.314 -0.543,-0.664 7.125,-5.836 13.142,-12.979 17.695,-20.985 1.3,-2.285 2.471,-4.642 3.52,-7.052 C -0.579,-0.816 0.221,-0.508 0,0"
             style="fill:#ff8d00;fill-opacity:1;fill-rule:nonzero;stroke:none"
             id="path277" />
        </g>
        <g
           id="g279"
           transform="translate(282.9831,276.0718)">
          <path
             d="m 0,0 c 0.115,0.54 -0.732,0.673 -0.847,0.134 -1.894,-8.903 -2.476,-18.08 -1.712,-27.151 0.219,-2.6 0.551,-5.189 0.988,-7.762 0.092,-0.541 0.945,-0.45 0.852,0.096 -1.523,8.97 -1.722,18.148 -0.563,27.173 C -0.959,-4.99 -0.529,-2.485 0,0"
             style="fill:#ff8d00;fill-opacity:1;fill-rule:nonzero;stroke:none"
             id="path281" />
        </g>
        <g
           id="g283"
           transform="translate(192.857,171.987)">
          <path
             d="m 0,0 c -1.598,21.809 -3.196,43.618 -4.793,65.427 -0.897,12.24 -1.794,24.479 -2.691,36.719 -0.04,0.55 -0.892,0.455 -0.852,-0.096 1.598,-21.809 3.196,-43.618 4.794,-65.427 1.597,-21.809 3.195,-43.618 4.793,-65.426 l 2.69,-36.72 c 0.041,-0.55 0.893,-0.454 0.852,0.096 C 3.196,-43.618 1.598,-21.809 0,0"
             style="fill:#ff8d00;fill-opacity:1;fill-rule:nonzero;stroke:none"
             id="path285" />
        </g>
        <g
           id="g287"
           transform="translate(126.7682,253.618)">
          <path
             d="M 0,0 C -0.44,3.033 -0.881,6.066 -1.321,9.099 -1.4,9.643 -2.253,9.551 -2.173,9.003 -0.617,-1.718 0.94,-12.439 2.497,-23.16 c 0.44,-3.033 0.881,-6.065 1.321,-9.098 0.079,-0.545 0.932,-0.453 0.852,0.095 C 3.113,-21.442 1.557,-10.721 0,0"
             style="fill:#ff8d00;fill-opacity:1;fill-rule:nonzero;stroke:none"
             id="path289" />
        </g>
        <g
           id="g291"
           transform="translate(127.8955,223.1825)">
          <path
             d="M 0,0 C -1.75,6.614 -3.5,13.229 -5.25,19.843 -5.39,20.375 -6.188,20.06 -6.048,19.531 -4.299,12.917 -2.549,6.303 -0.799,-0.312 -0.658,-0.844 0.14,-0.529 0,0"
             style="fill:#ff8d00;fill-opacity:1;fill-rule:nonzero;stroke:none"
             id="path293" />
        </g>
        <g
           id="g295"
           transform="translate(256.1514,284.8626)">
          <path
             d="m 0,0 c -0.417,-7.726 -0.833,-15.452 -1.25,-23.177 -0.118,-2.198 -0.237,-4.395 -0.355,-6.592 -0.03,-0.546 0.817,-0.686 0.847,-0.134 0.416,7.726 0.833,15.451 1.249,23.177 0.119,2.197 0.237,4.395 0.356,6.592 C 0.876,0.411 0.03,0.551 0,0"
             style="fill:#ff8d00;fill-opacity:1;fill-rule:nonzero;stroke:none"
             id="path297" />
        </g>
        <g
           id="g299"
           transform="translate(198.8521,314.3238)">
          <path
             d="m 0,0 -17.914,-35.955 -22.05,33.453 0.694,7.866 1.234,13.973 c 4.401,-4.355 10.553,-6.892 17.174,-6.471 6.61,0.412 12.389,3.685 16.229,8.544 z"
             style="fill:#ef6d1d;fill-opacity:1;fill-rule:nonzero;stroke:none"
             id="path301" />
        </g>
        <g
           id="g303"
           transform="translate(194.2187,335.7343)">
          <path
             d="m 0,0 c 0,0 -7.366,-18.789 -34.266,-11.848 l 0.863,9.774 c 4.401,-4.354 10.554,-6.891 17.175,-6.471 C -9.619,-8.133 -3.84,-4.859 0,0"
             style="fill:#c5330c;fill-opacity:1;fill-rule:nonzero;stroke:none"
             id="path305" />
        </g>
        <g
           id="g307"
           transform="translate(197.4297,352.2901)">
          <path
             d="m 0,0 0.257,-4.083 c 0.159,-2.674 -0.186,-5.278 -0.974,-7.695 -0.771,-2.365 -1.957,-4.57 -3.481,-6.5 v -0.009 c -3.569,-4.517 -8.944,-7.563 -15.09,-7.944 -6.155,-0.39 -11.876,1.966 -15.967,6.013 -1.895,1.86 -3.436,4.083 -4.508,6.553 -0.939,2.161 -1.523,4.508 -1.682,6.979 l -0.248,4.082 c -11.247,-0.708 -13.019,12.93 -8.83,17.021 0.142,0.142 0.292,0.266 0.443,0.381 0.124,0.098 0.257,0.186 0.372,0.266 3.259,2.116 5.792,-0.284 6.677,-1.329 1.346,1.196 2.312,2.817 2.719,4.57 0.407,1.683 0.292,3.48 -0.319,5.101 1.523,0.177 2.994,0.85 4.109,1.922 1.47,1.408 2.294,3.471 2.179,5.508 1.257,-0.646 2.692,-0.921 4.1,-0.815 0.753,0.045 1.497,0.213 2.205,0.479 2.019,0.779 3.684,2.444 4.446,4.472 1.931,-1.559 4.428,-2.409 6.916,-2.365 2.48,0.045 4.942,0.992 6.819,2.622 0.169,-1.851 0.833,-3.631 1.887,-5.172 0.257,-0.399 0.549,-0.779 0.876,-1.143 1.329,-1.549 3.073,-2.754 5.031,-3.365 -1.081,-2.674 -0.939,-5.809 0.336,-8.386 0,-0.009 0.009,-0.009 0.018,-0.018 0.221,-0.248 0.451,-0.487 0.691,-0.726 l 0.026,-0.505 v -0.027 l 0.009,0.009 c 0.097,0.195 1.736,3.304 4.72,3.171 C 4.454,19.04 5.26,18.819 6.155,18.314 6.465,18.137 6.766,17.915 7.04,17.65 11.3,13.647 10.928,0.673 0,0"
             style="fill:#ef6d1d;fill-opacity:1;fill-rule:nonzero;stroke:none"
             id="path309" />
        </g>
        <g
           id="g311"
           transform="translate(180.0964,349.0442)">
          <path
             d="m 0,0 c -2.503,-0.537 -5.017,-1.023 -7.539,-1.469 0.554,5.638 1.028,11.282 1.415,16.934 0.04,0.595 -0.887,0.588 -0.928,-0.005 C -7.451,9.621 -7.94,3.789 -8.518,-2.035 c -0.032,-0.329 0.325,-0.49 0.59,-0.444 2.737,0.474 5.463,1.003 8.179,1.586 C 0.834,-0.768 0.583,0.125 0,0"
             style="fill:#c5330c;fill-opacity:1;fill-rule:nonzero;stroke:none"
             id="path313" />
        </g>
        <g
           id="g315"
           transform="translate(166.6393,350.2043)">
          <path
             d="m 0,0 c 0.325,-1.985 -1.021,-3.858 -3.006,-4.183 -1.985,-0.324 -3.858,1.021 -4.183,3.006 -0.324,1.985 1.021,3.858 3.006,4.183 C -2.197,3.331 -0.325,1.985 0,0"
             style="fill:#c5330c;fill-opacity:1;fill-rule:nonzero;stroke:none"
             id="path317" />
        </g>
        <g
           id="g319"
           transform="translate(195.5312,354.9333)">
          <path
             d="m 0,0 c 0.325,-1.985 -1.021,-3.858 -3.006,-4.183 -1.985,-0.324 -3.858,1.021 -4.182,3.006 -0.325,1.985 1.02,3.858 3.005,4.183 C -2.197,3.331 -0.325,1.985 0,0"
             style="fill:#c5330c;fill-opacity:1;fill-rule:nonzero;stroke:none"
             id="path321" />
        </g>
        <g
           id="g323"
           transform="translate(167.0984,360.1427)">
          <path
             d="M 0,0 C 0.288,-1.757 -0.633,-3.37 -2.056,-3.602 -3.479,-3.835 -4.865,-2.6 -5.153,-0.843 -5.44,0.913 -4.52,2.526 -3.097,2.759 -1.674,2.992 -0.288,1.757 0,0"
             style="fill:#34314c;fill-opacity:1;fill-rule:nonzero;stroke:none"
             id="path325" />
        </g>
        <g
           id="g327"
           transform="translate(186.7424,362.6417)">
          <path
             d="M 0,0 C 0.288,-1.757 -0.633,-3.37 -2.056,-3.602 -3.479,-3.835 -4.865,-2.6 -5.153,-0.843 -5.44,0.913 -4.52,2.526 -3.097,2.759 -1.674,2.992 -0.288,1.757 0,0"
             style="fill:#34314c;fill-opacity:1;fill-rule:nonzero;stroke:none"
             id="path329" />
        </g>
        <g
           id="g331"
           transform="translate(166.071,367.5265)">
          <path
             d="M 0,0 C -0.257,0.395 -0.639,0.741 -1.113,0.847 -1.277,0.868 -1.442,0.889 -1.607,0.911 -1.941,0.908 -2.253,0.822 -2.541,0.652 l -3.898,-1.74 c -0.396,-0.177 -0.739,-0.714 -0.847,-1.113 -0.12,-0.445 -0.062,-1.036 0.195,-1.429 0.257,-0.395 0.639,-0.741 1.113,-0.847 0.164,-0.021 0.329,-0.042 0.493,-0.063 0.335,0.002 0.647,0.088 0.935,0.258 l 3.898,1.741 c 0.396,0.177 0.739,0.713 0.846,1.113 C 0.314,-0.984 0.256,-0.393 0,0"
             style="fill:#34314c;fill-opacity:1;fill-rule:nonzero;stroke:none"
             id="path333" />
        </g>
        <g
           id="g335"
           transform="translate(179.5925,369.7397)">
          <path
             d="M 0,0 C 0.118,0.456 0.37,0.907 0.785,1.157 0.934,1.23 1.083,1.303 1.232,1.375 1.551,1.479 1.873,1.497 2.201,1.429 L 6.45,1.021 C 6.882,0.98 7.378,0.581 7.607,0.236 7.863,-0.147 7.996,-0.726 7.879,-1.18 7.76,-1.636 7.509,-2.086 7.094,-2.337 6.944,-2.41 6.795,-2.482 6.646,-2.555 6.328,-2.659 6.005,-2.677 5.678,-2.608 L 1.429,-2.201 C 0.996,-2.159 0.501,-1.76 0.271,-1.416 0.016,-1.033 -0.118,-0.454 0,0"
             style="fill:#34314c;fill-opacity:1;fill-rule:nonzero;stroke:none"
             id="path337" />
        </g>
        <g
           id="g339"
           transform="translate(207.6582,375.2534)">
          <path
             d="m 0,0 c -0.469,-2.028 -1.815,-3.728 -3.188,-5.314 -0.275,0.266 -0.576,0.488 -0.886,0.665 -0.894,0.504 -1.7,0.726 -2.417,0.752 -2.985,0.133 -4.623,-2.975 -4.721,-3.17 0,0.009 -0.008,0.009 -0.008,0.018 l -0.027,0.504 c -0.239,0.24 -0.469,0.479 -0.691,0.727 -0.009,0.009 -0.017,0.009 -0.017,0.017 -0.957,1.931 -1.276,4.18 -0.921,6.306 -1.763,-0.239 -3.596,0.053 -5.172,0.965 -1.656,0.948 -2.923,2.471 -3.613,4.233 -0.983,-0.549 -2.055,-0.939 -3.18,-1.107 -2.594,-0.381 -5.242,0.399 -7.288,1.984 -0.664,-0.602 -1.408,-1.125 -2.223,-1.541 -2.347,-1.187 -5.127,-1.355 -7.634,-0.593 -0.46,-1.276 -1.186,-2.445 -2.16,-3.401 -1.674,-1.647 -3.915,-2.577 -6.235,-2.701 0.115,-1.001 0.08,-2.019 -0.159,-3.002 -0.408,-1.754 -1.373,-3.374 -2.719,-4.57 -0.886,1.045 -3.419,3.445 -6.678,1.329 -0.115,-0.08 -0.248,-0.169 -0.371,-0.266 -0.151,-0.115 -0.302,-0.239 -0.443,-0.381 -0.974,0.832 -1.612,2.081 -1.665,3.374 -0.062,1.709 0.912,3.427 2.417,4.251 -1.452,1.399 -2.063,3.613 -1.532,5.553 0.523,1.948 2.17,3.542 4.136,4.011 -1.576,2.002 -1.621,5.066 -0.106,7.112 1.514,2.054 4.454,2.904 6.828,1.992 -0.735,2.586 0.522,5.597 2.869,6.899 2.356,1.302 5.57,0.762 7.377,-1.231 0.363,2.754 2.604,5.154 5.331,5.703 2.719,0.549 5.721,-0.788 7.129,-3.188 1.054,2.223 3.569,3.657 6.013,3.445 2.453,-0.221 4.676,-2.072 5.332,-4.446 1.904,1.577 4.959,1.028 6.721,-0.708 1.771,-1.727 2.444,-4.295 2.577,-6.766 1.727,0.788 3.897,0.15 5.172,-1.258 1.275,-1.399 1.736,-3.418 1.523,-5.304 C -0.832,9.006 -1.638,7.235 -2.621,5.615 -0.452,4.942 0.496,2.214 0,0"
             style="fill:#34314c;fill-opacity:1;fill-rule:nonzero;stroke:none"
             id="path341" />
        </g>
        <g
           id="g343"
           transform="translate(188.0478,340.3923)">
          <path
             d="m 0,0 c -1.617,-2.184 -4.331,-3.253 -6.999,-2.823 -2.302,0.365 -5.655,2.375 -4.778,5.18 0.393,1.261 1.654,2.111 2.869,2.476 1.16,0.357 2.375,0.32 3.517,-0.045 0.357,1.059 0.859,2.055 1.8,2.731 C -2.43,8.36 -0.905,8.406 0.192,7.428 2.321,5.528 1.489,2.01 0,0"
             style="fill:#f8eadc;fill-opacity:1;fill-rule:nonzero;stroke:none"
             id="path345" />
        </g>
        <g
           id="g347"
           transform="translate(51.4114,267.209)">
          <path
             d="m 0,0 c 0,0 18.737,-92.406 39.569,-87.751 20.832,4.656 22.811,14.953 19.319,23.537 -3.491,8.584 -37.94,73.524 -37.94,73.524 0,0 0,12.86 -3.491,23.509 -3.491,10.649 -2.095,24.556 -3.608,26.244 -1.513,1.687 -7.914,3.986 -6.983,-19.494 0,0 -26.389,30.375 -30.433,26.128 -4.044,-4.248 14.897,-25.488 14.897,-25.488 0,0 -25.4,20.483 -27.815,16.934 -2.415,-3.55 19.377,-22.404 19.377,-22.404 0,0 -18.126,14.926 -20.774,12.104 -2.647,-2.822 18.621,-19.959 18.621,-19.959 0,0 -21.705,2.764 -21.763,-1.048 -0.058,-3.811 20.483,-6.342 20.483,-6.342 0,0 8.981,-15.072 20.541,-19.494"
             style="fill:#ef6d1d;fill-opacity:1;fill-rule:nonzero;stroke:none"
             id="path349" />
        </g>
        <g
           id="g351"
           transform="translate(49.1718,307.9573)">
          <path
             d="m 0,0 c -1.478,-0.872 -2.905,-1.822 -4.308,-2.806 -0.012,0.054 -0.035,0.105 -0.073,0.148 l -2.44,2.797 c -0.148,0.17 -0.39,0.234 -0.584,0.092 -0.171,-0.124 -0.242,-0.413 -0.093,-0.584 l 2.44,-2.797 c 0.035,-0.041 0.077,-0.075 0.121,-0.102 -2.43,-1.747 -4.755,-3.636 -6.933,-5.69 -1.357,1.463 -2.713,2.926 -4.07,4.388 -0.154,0.166 -0.387,0.237 -0.585,0.093 -0.166,-0.121 -0.247,-0.418 -0.093,-0.585 l 4.089,-4.408 c 0.019,-0.021 0.043,-0.035 0.064,-0.052 -0.682,-0.659 -1.356,-1.328 -2.01,-2.016 -0.372,-0.392 0.279,-0.919 0.648,-0.531 4.219,4.437 9.047,8.265 14.319,11.376 C 0.957,-0.403 0.461,0.272 0,0"
             style="fill:#c5330c;fill-opacity:1;fill-rule:nonzero;stroke:none"
             id="path353" />
        </g>
        <g
           id="g355"
           transform="translate(54.2818,296.8286)">
          <path
             d="m 0,0 c -1.367,-4.097 -2.104,-8.356 -2.2,-12.673 -0.012,-0.537 0.82,-0.439 0.832,0.093 0.093,4.156 0.816,8.292 2.131,12.234 C 0.932,0.161 0.17,0.511 0,0"
             style="fill:#c5330c;fill-opacity:1;fill-rule:nonzero;stroke:none"
             id="path357" />
        </g>
        <g
           id="g359"
           transform="translate(67.7781,272.7416)">
          <path
             d="m 0,0 c -3.329,-1.095 -6.588,-2.391 -9.76,-3.881 -0.485,-0.228 -0.185,-1.011 0.304,-0.78 3.172,1.49 6.431,2.786 9.76,3.881 C 0.816,-0.612 0.512,0.168 0,0"
             style="fill:#c5330c;fill-opacity:1;fill-rule:nonzero;stroke:none"
             id="path361" />
        </g>
        <g
           id="g363"
           transform="translate(319.1867,329.1655)">
          <path
             d="m 0,0 c 0,0 12.287,-93.482 -8.928,-95.845 -21.215,-2.362 -26.43,6.735 -25.915,15.988 0.514,9.252 12.006,81.86 12.006,81.86 0,0 -4.176,12.163 -4.332,23.368 -0.156,11.206 -5.993,23.906 -5.11,25.993 0.883,2.088 6.19,6.34 12.935,-16.169 0,0 15.094,37.299 20.299,34.594 5.204,-2.704 -5.812,-28.943 -5.812,-28.943 0,0 17.371,27.621 20.808,25.048 C 19.388,63.321 4.899,38.412 4.899,38.412 c 0,0 12.297,20.004 15.717,18.194 C 24.037,54.797 9.487,31.682 9.487,31.682 c 0,0 19.63,9.663 20.923,6.077 C 31.703,34.173 13.097,25.108 13.097,25.108 13.097,25.108 9.498,7.937 0,0"
             style="fill:#ef6d1d;fill-opacity:1;fill-rule:nonzero;stroke:none"
             id="path365" />
        </g>
        <g
           id="g367"
           transform="translate(308.072,368.4326)">
          <path
             d="M 0,0 C 1.681,-0.345 3.34,-0.78 4.986,-1.254 4.98,-1.2 4.985,-1.144 5.007,-1.091 L 6.406,2.346 C 6.491,2.555 6.699,2.694 6.929,2.624 7.13,2.562 7.292,2.311 7.206,2.101 L 5.807,-1.337 c -0.02,-0.05 -0.049,-0.096 -0.082,-0.136 2.866,-0.862 5.678,-1.894 8.405,-3.129 0.809,1.824 1.617,3.648 2.425,5.472 0.092,0.206 0.289,0.349 0.523,0.277 0.196,-0.06 0.37,-0.315 0.278,-0.523 L 14.92,-4.873 c -0.012,-0.026 -0.029,-0.046 -0.044,-0.07 0.86,-0.402 1.714,-0.816 2.556,-1.254 0.479,-0.25 0.035,-0.96 -0.44,-0.712 C 11.561,-4.083 5.751,-2.031 -0.245,-0.801 -0.774,-0.692 -0.524,0.108 0,0"
             style="fill:#c5330c;fill-opacity:1;fill-rule:nonzero;stroke:none"
             id="path369" />
        </g>
        <g
           id="g371"
           transform="translate(306.8529,356.2476)">
          <path
             d="m 0,0 c 2.623,-3.431 4.703,-7.22 6.197,-11.272 0.185,-0.503 -0.634,-0.681 -0.818,-0.182 -1.437,3.9 -3.464,7.577 -5.988,10.879 C -0.933,-0.151 -0.327,0.428 0,0"
             style="fill:#c5330c;fill-opacity:1;fill-rule:nonzero;stroke:none"
             id="path373" />
        </g>
        <g
           id="g375"
           transform="translate(301.9103,329.0833)">
          <path
             d="M 0,0 C 3.504,0.046 7.007,-0.122 10.491,-0.501 11.024,-0.56 10.994,-1.397 10.457,-1.338 6.973,-0.958 3.47,-0.791 -0.034,-0.837 -0.573,-0.844 -0.538,-0.007 0,0"
             style="fill:#c5330c;fill-opacity:1;fill-rule:nonzero;stroke:none"
             id="path377" />
        </g>
        <g
           id="g379"
           transform="translate(390.8401,344.4057)">
          <path
             d="m 0,0 c -3.406,-3.869 -8.853,-5.804 -13.891,-4.458 -5.206,1.382 -9.156,5.332 -13.89,7.685 -2.505,1.249 -5.225,2.247 -7.177,4.333 -0.25,0.259 -0.473,0.535 -0.678,0.821 -0.223,0.276 -0.437,0.579 -0.633,0.909 -2.817,4.948 0.063,11.162 3.129,15.281 3.317,4.449 8.23,7.668 13.775,8.426 5.269,0.713 10.503,-1.097 14.613,-4.378 4.208,-3.361 7.329,-8.202 8.425,-13.48 C 4.761,9.887 3.593,4.074 0,0"
             style="fill:#cb3434;fill-opacity:1;fill-rule:nonzero;stroke:none"
             id="path381" />
        </g>
        <g
           id="g383"
           transform="translate(398.5018,327.2208)">
          <path
             d="m 0,0 c 0,-18.65 -12.429,-29.786 -28.232,-29.786 -15.803,0 -28.996,11.136 -28.996,29.786 0,18.65 12.811,29.68 28.614,29.68 C -12.811,29.68 0,18.65 0,0"
             style="fill:#cb3434;fill-opacity:1;fill-rule:nonzero;stroke:none"
             id="path385" />
        </g>
        <g
           id="g387"
           transform="translate(259.0793,385.5075)">
          <path
             d="m 0,0 c -0.508,-4.003 -1.73,-7.881 -2.487,-11.849 -1.052,-5.483 -1.222,-11.109 -2.203,-16.61 -0.936,-5.26 -2.737,-10.565 -6.339,-14.488 0.045,-1.346 0.081,-2.692 0.125,-4.038 l -20.711,5.126 c 0.152,2.131 0.303,4.262 0.455,6.393 -2.933,6.312 -4.021,13.337 -6.17,19.98 -2.469,7.622 -6.357,14.773 -8.247,22.556 -0.116,0.499 -0.231,1.008 -0.142,1.507 0.08,0.499 0.41,0.989 0.9,1.123 0.776,0.205 1.462,-0.526 1.926,-1.186 2.826,-4.003 5.323,-8.255 7.453,-12.669 -1.961,6.883 -3.37,13.918 -4.235,21.023 -0.187,1.489 -0.338,3.005 -0.089,4.485 0.098,0.597 0.357,1.284 0.945,1.435 0.553,0.134 1.079,-0.276 1.454,-0.704 0.98,-1.123 1.542,-2.55 2.059,-3.95 2.657,-7.132 4.797,-14.443 6.919,-21.754 l 0.169,0.054 c -1.765,9.112 -3.539,18.268 -3.869,27.54 -0.018,0.535 -0.036,1.088 0.142,1.587 0.188,0.508 0.598,0.954 1.133,1.025 0.704,0.09 1.301,-0.499 1.72,-1.069 1.489,-2.033 2.3,-4.467 3.005,-6.883 1.551,-5.287 2.719,-10.672 3.762,-16.084 -0.374,5.688 -0.722,11.367 -0.873,17.064 -0.054,1.864 -0.072,3.772 0.517,5.537 0.249,0.749 0.829,1.578 1.605,1.462 0.606,-0.089 0.962,-0.704 1.212,-1.257 3.183,-6.954 3.709,-14.764 4.912,-22.316 0.803,-5.046 1.926,-10.03 3.371,-14.925 1.373,4.904 3.628,9.558 6.615,13.686 0.455,0.624 0.936,1.248 1.578,1.658 0.642,0.419 1.48,0.598 2.176,0.286 C 0.071,3.165 0.178,1.4 0,0"
             style="fill:#ff9a53;fill-opacity:1;fill-rule:nonzero;stroke:none"
             id="path389" />
        </g>
        <g
           id="g391"
           transform="translate(240.4675,388.0992)">
          <path
             d="M 0,0 C -1.025,-0.419 -2.03,-0.883 -3.021,-1.374 -3.127,-0.598 -3.233,0.178 -3.339,0.954 -3.37,1.185 -3.59,1.386 -3.831,1.348 -4.065,1.311 -4.258,1.102 -4.225,0.855 c 0.113,-0.828 0.226,-1.655 0.339,-2.483 0.007,-0.053 0.027,-0.104 0.052,-0.151 -3.525,-1.834 -6.809,-4.117 -9.748,-6.802 -0.42,-0.383 0.1,-1.108 0.524,-0.721 3.927,3.587 8.457,6.46 13.382,8.471 C 0.855,-0.614 0.533,0.218 0,0"
             style="fill:#ef6d1d;fill-opacity:1;fill-rule:nonzero;stroke:none"
             id="path393" />
        </g>
        <g
           id="g395"
           transform="translate(224.1066,381.9474)">
          <path
             d="m 0,0 c -0.121,0.2 -0.445,0.24 -0.623,0.099 -0.202,-0.161 -0.227,-0.409 -0.098,-0.623 0.023,-0.039 0.046,-0.079 0.07,-0.119 0.007,-0.013 0.014,-0.027 0.021,-0.04 0.04,-0.078 0.078,-0.157 0.113,-0.237 0.066,-0.149 0.123,-0.302 0.172,-0.458 0.022,-0.071 0.043,-0.142 0.06,-0.215 0.006,-0.026 0.016,-0.068 0.018,-0.078 0.007,-0.035 0.014,-0.069 0.02,-0.103 0.032,-0.172 0.052,-0.346 0.063,-0.521 0.015,-0.233 0.263,-0.429 0.493,-0.393 0.248,0.039 0.409,0.243 0.393,0.493 C 0.653,-1.415 0.403,-0.667 0,0"
             style="fill:#ef6d1d;fill-opacity:1;fill-rule:nonzero;stroke:none"
             id="path397" />
        </g>
        <g
           id="g399"
           transform="translate(242.5241,363.6965)">
          <path
             d="m 0,0 c -2.926,4.044 -6.663,7.435 -10.957,9.976 -0.494,0.292 -0.858,-0.523 -0.369,-0.813 4.159,-2.46 7.773,-5.774 10.605,-9.687 C -0.385,-0.99 0.337,-0.466 0,0"
             style="fill:#ef6d1d;fill-opacity:1;fill-rule:nonzero;stroke:none"
             id="path401" />
        </g>
        <g
           id="g403"
           transform="translate(459.6097,39.5239)">
          <path
             d="m 0,0 c -0.009,-1.016 -0.027,-2.033 -0.062,-3.058 -0.027,-0.856 -0.054,-1.792 -0.625,-2.487 -0.445,-0.535 -1.158,-0.856 -1.845,-0.642 -0.651,0.205 -1.052,0.784 -1.32,1.373 -0.392,0.864 -0.624,1.827 -0.9,2.728 -0.303,0.998 -0.588,1.997 -0.856,2.995 -0.25,0.91 -0.472,1.828 -0.695,2.746 -0.116,-1.872 -0.268,-3.744 -0.544,-5.607 -0.375,-2.559 -0.981,-5.109 -1.979,-7.507 -0.366,-0.874 -0.838,-1.953 -1.837,-2.238 -0.838,-0.241 -1.587,0.24 -1.962,0.98 -0.463,0.919 -0.401,1.953 -0.392,2.952 0.027,1.479 0.054,2.968 0.08,4.448 0.018,1.124 0.036,2.256 0.054,3.379 -0.152,-0.641 -0.312,-1.283 -0.49,-1.916 -0.535,-1.971 -1.159,-3.923 -1.935,-5.813 -0.562,-1.364 -1.979,-3.094 -3.638,-2.167 -0.651,0.357 -0.945,1.052 -1.079,1.739 -0.187,0.989 -0.169,2.05 -0.169,3.058 0,1.328 0.089,2.657 0.232,3.976 -0.517,-0.9 -1.07,-1.792 -1.667,-2.648 -0.446,-0.624 -0.919,-1.355 -1.668,-1.649 -0.615,-0.232 -1.301,-0.027 -1.658,0.535 -0.285,0.463 -0.294,1.043 -0.241,1.56 0.081,0.82 0.321,1.631 0.491,2.434 0.383,1.819 0.767,3.629 1.15,5.447 0.392,1.855 0.785,3.7 1.177,5.555 0.383,1.774 0.811,3.557 0.963,5.376 0.133,1.667 -0.152,3.272 -0.553,4.859 -0.615,1.025 -1.204,2.077 -1.721,3.165 -2.398,5.1 -3.415,11.1 -1.435,16.503 1.257,3.45 3.86,6.437 7.168,7.988 0.232,0.161 0.464,0.321 0.704,0.455 1.427,0.793 3.067,1.212 4.699,1.016 1.614,-0.187 3.076,-1.025 4.199,-2.175 2.612,-2.675 3.263,-6.491 4.003,-10.003 0.856,-4.128 1.641,-8.274 2.3,-12.438 C -0.749,16.681 0.062,8.345 0,0"
             style="fill:#ff9a53;fill-opacity:1;fill-rule:nonzero;stroke:none"
             id="path405" />
        </g>
        <g
           id="g407"
           transform="translate(446.3835,59.2476)">
          <path
             d="m 0,0 c -0.196,-4.231 -0.356,-8.587 -1.623,-12.661 -0.256,-0.826 -0.77,-2.079 -1.843,-1.978 -0.898,0.084 -1.173,1.274 -1.345,1.989 -0.507,2.107 -0.547,4.288 -0.773,6.434 -0.225,2.137 -0.658,4.249 -1.73,6.134 -0.284,0.498 -1.003,-0.03 -0.722,-0.524 1.129,-1.983 1.444,-4.28 1.643,-6.518 0.197,-2.213 0.21,-4.61 1.005,-6.714 0.27,-0.715 0.743,-1.418 1.518,-1.632 0.877,-0.241 1.795,0.217 2.329,0.913 0.629,0.82 0.865,1.91 1.113,2.892 0.292,1.158 0.511,2.334 0.68,3.516 0.38,2.653 0.505,5.334 0.629,8.01 C 0.907,0.427 0.027,0.573 0,0"
             style="fill:#ef6d1d;fill-opacity:1;fill-rule:nonzero;stroke:none"
             id="path409" />
        </g>
        <g
           id="g411"
           transform="translate(440.398,43.5604)">
          <path
             d="m 0,0 c -0.265,-1.608 -0.53,-3.216 -0.795,-4.824 -0.094,-0.567 0.787,-0.707 0.88,-0.14 0.265,1.608 0.53,3.216 0.796,4.825 C 0.974,0.427 0.094,0.567 0,0"
             style="fill:#ef6d1d;fill-opacity:1;fill-rule:nonzero;stroke:none"
             id="path413" />
        </g>
        <g
           id="g415"
           transform="translate(446.7014,47.3454)">
          <path
             d="m 0,0 c -0.141,-2.52 -0.282,-5.04 -0.423,-7.56 -0.031,-0.567 0.849,-0.713 0.881,-0.139 0.141,2.52 0.282,5.04 0.423,7.56 C 0.912,0.428 0.032,0.573 0,0"
             style="fill:#ef6d1d;fill-opacity:1;fill-rule:nonzero;stroke:none"
             id="path417" />
        </g>
        <g
           id="g419"
           transform="translate(452.8282,54.3284)">
          <path
             d="m 0,0 c -0.113,0.557 -1.001,0.464 -0.886,-0.1 0.781,-3.835 1.186,-7.734 1.21,-11.649 0.003,-0.572 0.889,-0.47 0.886,0.1 C 1.186,-7.735 0.781,-3.836 0,0"
             style="fill:#ef6d1d;fill-opacity:1;fill-rule:nonzero;stroke:none"
             id="path421" />
        </g>
        <g
           id="g423"
           transform="translate(362.5338,137.8033)">
          <path
             d="m 0,0 -61.211,2.974 c 0,0 -21.315,0.992 -23.794,-140.777 h 57.501 L -9.707,-58.492 0,-137.803 h 52.303 c 0,0 12.888,125.411 -17.845,138.299 z"
             style="fill:#34314c;fill-opacity:1;fill-rule:nonzero;stroke:none"
             id="path425" />
        </g>
        <g
           id="g427"
           transform="translate(402.3179,133.0934)">
          <path
             d="m 0,0 c -61.714,-18.027 -93.685,3.718 -93.685,3.718 l 9.049,51.8 7.685,74.606 64.193,-2.978 7.435,-85.011 C -5.884,42.082 0,0 0,0"
             style="fill:#f8eadc;fill-opacity:1;fill-rule:nonzero;stroke:none"
             id="path429" />
        </g>
        <g
           id="g431"
           transform="translate(376.6588,211.7828)">
          <path
             d="m 0,0 c -0.036,-3.432 -0.384,-6.847 -0.811,-10.244 -0.428,-3.397 -0.874,-6.794 -1.418,-10.173 -1.034,-6.535 -2.461,-13.32 -5.608,-19.195 -1.221,-2.274 -2.987,-4.574 -5.635,-5.136 -2.915,-0.615 -5.545,1.302 -7.515,3.21 -2.559,2.488 -4.94,5.171 -7.4,7.766 -2.229,2.353 -4.547,4.654 -6.545,7.221 -1.818,2.354 -3.334,4.993 -3.905,7.944 -0.606,3.112 0,6.312 1.195,9.219 1.222,2.995 3.023,5.715 4.922,8.318 1.827,2.514 3.798,4.913 5.928,7.177 0.758,0.803 1.543,1.569 2.345,2.336 1.329,1.409 2.728,2.773 4.2,4.057 2.3,2.006 4.787,4.021 7.48,5.483 1.328,0.731 2.808,1.239 4.342,1.088 1.275,-0.125 2.46,-0.74 3.405,-1.587 2.131,-1.917 3.192,-4.752 3.897,-7.454 C -0.268,6.758 0.027,3.37 0,0"
             style="fill:#ffb444;fill-opacity:1;fill-rule:nonzero;stroke:none"
             id="path433" />
        </g>
        <g
           id="g435"
           transform="translate(381.8475,182.5752)">
          <path
             d="m 0,0 c 1.245,-8.735 -8.594,-12.704 -15.46,-9.022 -7.298,7.274 -10.059,37.37 7.293,30.5 C -0.42,17.533 0.479,7.744 0,0"
             style="fill:#ef6d1d;fill-opacity:1;fill-rule:nonzero;stroke:none"
             id="path437" />
        </g>
        <g
           id="g439"
           transform="translate(344.9761,211.0602)">
          <path
             d="m 0,0 c -6.266,-3.348 -13.902,-3.181 -19.984,0.502 -1.614,0.978 -3.093,2.198 -4.367,3.59 -0.384,0.418 -1.109,-0.101 -0.722,-0.524 4.875,-5.322 12.244,-7.865 19.358,-6.521 2.11,0.398 4.146,1.11 6.039,2.122 C 0.824,-0.564 0.507,0.271 0,0"
             style="fill:#ebcbb0;fill-opacity:1;fill-rule:nonzero;stroke:none"
             id="path441" />
        </g>
        <g
           id="g443"
           transform="translate(395.7658,208.0103)">
          <path
             d="m 0,0 c -6.734,-3.967 -15.144,-4.352 -22.207,-1.011 -1.931,0.913 -3.721,2.083 -5.342,3.472 -0.437,0.374 -1,-0.317 -0.565,-0.69 6.121,-5.243 14.528,-7.177 22.322,-5.139 2.222,0.581 4.339,1.482 6.316,2.647 C 1.019,-0.43 0.491,0.289 0,0"
             style="fill:#ebcbb0;fill-opacity:1;fill-rule:nonzero;stroke:none"
             id="path445" />
        </g>
        <g
           id="g447"
           transform="translate(389.3011,308.3034)">
          <path
             d="m 0,0 -0.232,-3.914 c -0.098,-1.498 -0.339,-2.951 -0.749,-4.315 -1.31,-4.583 -4.199,-8.461 -8.006,-11.056 -3.54,-2.425 -7.881,-3.744 -12.464,-3.468 -5.305,0.312 -10.012,2.693 -13.4,6.295 -3.647,3.896 -5.778,9.21 -5.439,14.933 l 0.232,3.897 c -11.171,0.668 -10.886,14.764 -5.956,17.59 3.807,2.176 6.125,-1.079 6.714,-2.051 0,0 3.37,0.036 7.979,1.142 4.94,1.177 11.297,3.566 16.476,8.434 0.848,0.784 1.668,1.649 2.443,2.594 1.159,1.4 2.229,2.969 3.156,4.717 0,0 3.406,-2.408 6.268,-6.919 1.052,-1.64 2.024,-3.557 2.728,-5.733 0.678,-2.05 1.124,-4.342 1.177,-6.847 H 0.909 v -0.035 c 0,0 0,0.008 0.018,0.026 v 0.009 c 0.286,0.41 3.174,4.333 7.079,1.436 0.553,-0.411 1.026,-0.981 1.382,-1.659 0.223,-0.401 0.41,-0.847 0.571,-1.328 C 11.653,8.461 8.996,-0.535 0,0"
             style="fill:#ff9a53;fill-opacity:1;fill-rule:nonzero;stroke:none"
             id="path449" />
        </g>
        <g
           id="g451"
           transform="translate(406.214,268.3346)">
          <path
             d="m 0,0 c -0.731,-1.783 -1.917,-3.753 -3.441,-5.84 -16.869,-23.109 -50.864,-24.678 -70.336,-3.718 -4.761,5.136 -8.755,9.968 -10.788,13.606 8.791,1.801 30.215,5.946 30.215,5.946 h 0.009 l 0.393,2.06 1.283,6.767 0.901,4.689 c 3.388,-3.601 8.095,-5.982 13.4,-6.294 4.583,-0.276 8.925,1.043 12.464,3.468 l 0.357,-5.34 0.454,-6.428 C -23.591,8.737 0,0.089 0,0"
             style="fill:#ff9a53;fill-opacity:1;fill-rule:nonzero;stroke:none"
             id="path453" />
        </g>
        <g
           id="g455"
           transform="translate(371.2464,306.6208)">
          <path
             d="m 0,0 c -2.341,0.024 -4.68,0.096 -7.019,0.205 1.627,4.917 3.185,9.856 4.665,14.818 0.156,0.523 -0.673,0.703 -0.828,0.182 -1.53,-5.127 -3.138,-10.23 -4.824,-15.308 -0.095,-0.287 0.191,-0.503 0.437,-0.515 2.536,-0.127 5.074,-0.203 7.613,-0.229 C 0.59,-0.853 0.545,-0.006 0,0"
             style="fill:#ef6d1d;fill-opacity:1;fill-rule:nonzero;stroke:none"
             id="path457" />
        </g>
        <g
           id="g459"
           transform="translate(359.4776,310.3601)">
          <path
             d="m 0,0 c -0.109,-1.836 -1.686,-3.235 -3.522,-3.126 -1.835,0.109 -3.235,1.686 -3.126,3.521 0.11,1.836 1.686,3.236 3.522,3.127 C -1.29,3.412 0.109,1.836 0,0"
             style="fill:#ef6d1d;fill-opacity:1;fill-rule:nonzero;stroke:none"
             id="path461" />
        </g>
        <g
           id="g463"
           transform="translate(386.1958,308.7708)">
          <path
             d="m 0,0 c -0.109,-1.836 -1.686,-3.235 -3.522,-3.126 -1.835,0.109 -3.235,1.686 -3.126,3.521 0.11,1.836 1.686,3.236 3.522,3.127 C -1.29,3.412 0.109,1.836 0,0"
             style="fill:#ef6d1d;fill-opacity:1;fill-rule:nonzero;stroke:none"
             id="path465" />
        </g>
        <g
           id="g467"
           transform="translate(361.8846,319.1316)">
          <path
             d="m 0,0 c -0.097,-1.625 -1.242,-2.878 -2.558,-2.8 -1.315,0.079 -2.304,1.459 -2.207,3.083 0.096,1.625 1.242,2.878 2.557,2.8 C -0.892,3.005 0.097,1.625 0,0"
             style="fill:#34314c;fill-opacity:1;fill-rule:nonzero;stroke:none"
             id="path469" />
        </g>
        <g
           id="g471"
           transform="translate(379.9066,317.4121)">
          <path
             d="m 0,0 c -0.097,-1.625 -1.242,-2.878 -2.558,-2.8 -1.315,0.079 -2.304,1.459 -2.207,3.083 0.096,1.625 1.242,2.878 2.557,2.8 C -0.892,3.005 0.097,1.625 0,0"
             style="fill:#34314c;fill-opacity:1;fill-rule:nonzero;stroke:none"
             id="path473" />
        </g>
        <g
           id="g475"
           transform="translate(362.4523,325.9235)">
          <path
             d="M 0,0 C -0.15,0.404 -0.421,0.79 -0.822,0.979 -0.965,1.031 -1.107,1.083 -1.25,1.135 -1.549,1.2 -1.844,1.186 -2.136,1.093 l -3.825,-0.77 c -0.39,-0.078 -0.803,-0.487 -0.979,-0.822 -0.197,-0.372 -0.264,-0.911 -0.114,-1.313 0.15,-0.404 0.421,-0.79 0.822,-0.979 0.143,-0.052 0.285,-0.104 0.428,-0.156 0.299,-0.065 0.594,-0.051 0.885,0.042 l 3.826,0.769 c 0.39,0.079 0.803,0.488 0.979,0.823 C 0.083,-0.941 0.149,-0.402 0,0"
             style="fill:#34314c;fill-opacity:1;fill-rule:nonzero;stroke:none"
             id="path477" />
        </g>
        <g
           id="g479"
           transform="translate(374.9565,325.1797)">
          <path
             d="M 0,0 C 0.197,0.383 0.512,0.734 0.933,0.875 1.08,0.909 1.228,0.944 1.376,0.979 1.68,1.008 1.972,0.959 2.25,0.832 L 5.958,-0.385 C 6.335,-0.509 6.697,-0.965 6.832,-1.318 6.983,-1.711 6.986,-2.254 6.79,-2.636 6.592,-3.019 6.278,-3.37 5.857,-3.51 5.709,-3.545 5.562,-3.58 5.414,-3.614 5.109,-3.643 4.818,-3.594 4.54,-3.467 L 0.832,-2.25 C 0.455,-2.126 0.093,-1.671 -0.043,-1.317 -0.194,-0.924 -0.196,-0.381 0,0"
             style="fill:#34314c;fill-opacity:1;fill-rule:nonzero;stroke:none"
             id="path481" />
        </g>
        <g
           id="g483"
           transform="translate(380.3143,289.0157)">
          <path
             d="m 0,0 c 0,0 -4.36,-12.466 -28.047,-8.623 l 1.288,6.764 0.896,4.69 c 3.388,-3.605 8.097,-5.982 13.396,-6.294 C -7.878,-3.742 -3.54,-2.422 0,0"
             style="fill:#ef6d1d;fill-opacity:1;fill-rule:nonzero;stroke:none"
             id="path485" />
        </g>
        <g
           id="g487"
           transform="translate(377.359,304.3065)">
          <path
             d="m 0,0 c -1.697,-2.386 -4.465,-3.842 -7.391,-3.898 -0.573,-0.011 -0.471,-0.897 0.099,-0.886 3.134,0.06 6.166,1.666 7.982,4.219 C 1.022,-0.099 0.333,0.468 0,0"
             style="fill:#34314c;fill-opacity:1;fill-rule:nonzero;stroke:none"
             id="path489" />
        </g>
        <g
           id="g491"
           transform="translate(352.8272,283.3218)">
          <path
             d="M 0,0 -0.954,-4.993 -9.718,-6.722 -40.04,-207.235 c -36.242,2.604 -51.613,24.295 -51.613,24.295 l 14.372,117.473 c 0,0 -55.927,41.885 -61.633,60.394 -5.698,18.509 9.094,70.719 9.094,70.719 l 4.457,-1.106 20.711,-5.126 2.835,-0.705 V 15.914 L -25.98,-3.361 C -12.589,2.559 0,0 0,0"
             style="fill:#2db3ac;fill-opacity:1;fill-rule:nonzero;stroke:none"
             id="path493" />
        </g>
        <g
           id="g495"
           transform="translate(380.67,283.6792)">
          <path
             d="m 0,0 c 0,0 10.909,0.478 19.068,-9.312 0,0 22.534,-4.957 26.747,-19.828 4.214,-14.871 27.016,-164.075 27.016,-164.075 0,0 -2.231,-15.49 -20.572,-17.349 l -10.409,15.614 0.496,-7.187 c 0,0 -13.632,-13.756 -29.99,-11.649 L 0.454,-6.428 Z"
             style="fill:#2db3ac;fill-opacity:1;fill-rule:nonzero;stroke:none"
             id="path497" />
        </g>
        <g
           id="g499"
           transform="translate(327.3725,235.8414)">
          <path
             d="m 0,0 c -0.816,8.796 -1.188,17.633 -1.115,26.466 0.042,5.028 0.233,10.055 0.565,15.073 0.038,0.567 -0.843,0.712 -0.881,0.139 -0.585,-8.854 -0.729,-17.737 -0.421,-26.605 0.309,-8.901 1.069,-17.786 2.28,-26.609 0.679,-4.95 1.501,-9.879 2.46,-14.782 0.109,-0.559 0.997,-0.466 0.886,0.099 C 2.079,-17.549 0.816,-8.796 0,0"
             style="fill:#009789;fill-opacity:1;fill-rule:nonzero;stroke:none"
             id="path501" />
        </g>
        <g
           id="g503"
           transform="translate(400.3838,272.5017)">
          <path
             d="m 0,0 c -0.783,-8.035 -1.975,-16.028 -3.577,-23.94 -1.609,-7.941 -3.626,-15.801 -6.049,-23.532 -1.365,-4.354 -2.858,-8.667 -4.473,-12.934 -0.202,-0.535 0.609,-0.906 0.812,-0.369 2.871,7.587 5.353,15.321 7.43,23.163 2.076,7.837 3.747,15.781 5.003,23.791 0.712,4.542 1.289,9.105 1.735,13.682 C 0.936,0.429 0.056,0.572 0,0"
             style="fill:#009789;fill-opacity:1;fill-rule:nonzero;stroke:none"
             id="path505" />
        </g>
        <g
           id="g507"
           transform="translate(273.3736,249.2422)">
          <path
             d="m 0,0 c -0.298,2.69 -0.572,5.382 -0.822,8.076 -0.054,0.571 -0.94,0.473 -0.887,-0.099 0.888,-9.54 2.074,-19.052 3.563,-28.517 0.42,-2.673 0.865,-5.342 1.333,-8.008 0.099,-0.561 0.986,-0.467 0.886,0.1 C 2.417,-19.011 1.056,-9.523 0,0"
             style="fill:#009789;fill-opacity:1;fill-rule:nonzero;stroke:none"
             id="path509" />
        </g>
        <g
           id="g511"
           transform="translate(273.4417,227.1194)">
          <path
             d="M 0,0 C -2.526,7.347 -5.051,14.694 -7.577,22.041 -7.763,22.584 -8.594,22.26 -8.407,21.717 -5.882,14.37 -3.356,7.023 -0.831,-0.324 -0.644,-0.867 0.187,-0.543 0,0"
             style="fill:#009789;fill-opacity:1;fill-rule:nonzero;stroke:none"
             id="path513" />
        </g>
        <g
           id="g515"
           transform="translate(419.4505,138.1425)">
          <path
             d="m 0,0 c -0.956,14.884 -2.07,29.758 -3.341,44.618 -0.72,8.416 -1.491,16.827 -2.312,25.234 -0.055,0.571 -0.942,0.473 -0.886,-0.1 1.456,-14.919 2.755,-29.855 3.894,-44.802 1.133,-14.872 2.109,-29.755 2.927,-44.647 0.463,-8.434 0.875,-16.871 1.238,-25.31 0.025,-0.572 0.911,-0.472 0.886,0.1 C 1.763,-29.93 0.961,-14.96 0,0"
             style="fill:#009789;fill-opacity:1;fill-rule:nonzero;stroke:none"
             id="path517" />
        </g>
        <g
           id="g519"
           transform="translate(310.9047,136.5802)">
          <path
             d="m 0,0 c -2.53,-5.484 -5.712,-10.652 -9.464,-15.386 -3.731,-4.709 -8.008,-8.982 -12.73,-12.697 -2.679,-2.107 -5.498,-4.031 -8.435,-5.761 -0.494,-0.292 0.034,-1.011 0.524,-0.721 5.245,3.09 10.1,6.808 14.474,11.041 4.386,4.246 8.271,9.009 11.541,14.164 1.83,2.886 3.47,5.888 4.902,8.991 C 1.053,0.153 0.24,0.521 0,0"
             style="fill:#009789;fill-opacity:1;fill-rule:nonzero;stroke:none"
             id="path521" />
        </g>
        <g
           id="g523"
           transform="translate(415.0441,92.1204)">
          <path
             d="m 0,0 c -7.114,8.387 -12.469,18.213 -15.675,28.733 -0.907,2.977 -1.635,6.005 -2.188,9.067 -0.102,0.561 -0.989,0.468 -0.887,-0.099 1.975,-10.934 6.201,-21.425 12.349,-30.68 1.743,-2.624 3.642,-5.143 5.68,-7.545 C -0.352,-0.96 0.372,-0.438 0,0"
             style="fill:#009789;fill-opacity:1;fill-rule:nonzero;stroke:none"
             id="path525" />
        </g>
        <g
           id="g527"
           transform="translate(321.9255,244.3281)">
          <path
             d="m 0,0 c -6.893,-11.637 -11.735,-24.42 -14.334,-37.692 -0.331,-1.69 2.311,-2.106 2.641,-0.418 2.555,13.046 7.355,25.568 14.129,37.004 C 3.313,0.375 0.868,1.466 0,0"
             style="fill:#f8eadc;fill-opacity:1;fill-rule:nonzero;stroke:none"
             id="path529" />
        </g>
        <g
           id="g531"
           transform="translate(399.5913,233.7442)">
          <path
             d="M 0,0 C -0.48,1.652 -2.97,0.673 -2.492,-0.972 1.06,-13.194 2.154,-26.074 0.743,-38.721 0.552,-40.427 3.193,-40.855 3.384,-39.14 4.85,-25.999 3.69,-12.695 0,0"
             style="fill:#f8eadc;fill-opacity:1;fill-rule:nonzero;stroke:none"
             id="path533" />
        </g>
        <g
           id="g535"
           transform="translate(327.5523,209.7595)">
          <path
             d="m 0,0 c -1.872,-17.067 -3.884,-34.119 -6.035,-51.154 -2.141,-16.949 -4.42,-33.88 -6.837,-50.792 -1.355,-9.48 -2.753,-18.955 -4.195,-28.423 -0.086,-0.567 0.794,-0.708 0.881,-0.139 2.584,16.974 5.03,33.969 7.336,50.983 2.294,16.929 4.45,33.876 6.468,50.84 1.131,9.51 2.218,19.026 3.263,28.546 C 0.943,0.429 0.063,0.572 0,0"
             style="fill:#f8eadc;fill-opacity:1;fill-rule:nonzero;stroke:none"
             id="path537" />
        </g>
        <g
           id="g539"
           transform="translate(392.1847,127.0145)">
          <path
             d="m 0,0 c -1.156,17.82 -1.899,35.666 -2.227,53.52 -0.185,10.06 -0.237,20.122 -0.16,30.184 0.004,0.571 -0.882,0.468 -0.886,-0.1 -0.137,-17.857 0.136,-35.716 0.826,-53.56 0.69,-17.844 1.794,-35.671 3.311,-53.464 0.855,-10.025 1.842,-20.039 2.958,-30.039 0.064,-0.569 0.95,-0.472 0.886,0.1 C 2.728,-35.612 1.156,-17.82 0,0"
             style="fill:#f8eadc;fill-opacity:1;fill-rule:nonzero;stroke:none"
             id="path541" />
        </g>
      </g>
    </g>
  </g>
</svg>
